<svg width="46" height="43" viewBox="0 0 46 43" fill="none" xmlns="http://www.w3.org/2000/svg">
<path d="M17.7727 12.9C16.0303 12.9 14.5492 12.2729 13.3295 11.0187C12.1099 9.76458 11.5 8.24166 11.5 6.45C11.5 4.65833 12.1099 3.13541 13.3295 1.88125C14.5492 0.627083 16.0303 0 17.7727 0C19.5152 0 20.9962 0.627083 22.2159 1.88125C23.4356 3.13541 24.0455 4.65833 24.0455 6.45C24.0455 8.24166 23.4356 9.76458 22.2159 11.0187C20.9962 12.2729 19.5152 12.9 17.7727 12.9ZM2.09092 43C1.49849 43 1.00225 42.7936 0.602189 42.3808C0.202128 41.968 0.00140115 41.4577 7.21003e-06 40.85C-0.00138673 40.2422 0.19934 39.732 0.602189 39.3192C1.00504 38.9064 1.50128 38.7 2.09092 38.7H4.18182V22.8437C4.18182 21.5896 4.67876 20.425 5.67264 19.35C6.66652 18.275 8.10367 17.3792 9.9841 16.6625C11.0992 16.1967 12.3712 15.8118 13.8 15.5079C15.2288 15.2041 16.553 15.0514 17.7727 15.05C18.9576 15.05 20.2909 15.2112 21.7726 15.5337C23.2544 15.8562 24.6044 16.2683 25.8227 16.77C27.6 17.4867 28.9682 18.3732 29.9272 19.4295C30.8862 20.4859 31.365 21.624 31.3636 22.8437V23.65C31.3636 24.2592 31.1629 24.7701 30.7615 25.1829C30.36 25.5957 29.8638 25.8014 29.2727 25.8H25.0909C23.7318 25.8 22.625 26.3468 21.7705 27.4404C20.9161 28.5341 20.6638 29.761 21.0136 31.1212L22.8432 38.7H27.1818C27.147 38.5925 27.1205 38.4943 27.1024 38.4054C27.0842 38.3166 27.0585 38.2177 27.025 38.1087L25.7182 32.7875C25.5439 32.1066 25.6659 31.4889 26.0841 30.9342C26.5023 30.3795 27.0598 30.1014 27.7568 30.1H43.3341C44.0311 30.1 44.5886 30.378 45.0068 30.9342C45.425 31.4903 45.547 32.1081 45.3727 32.7875L44.0659 38.1087C44.0311 38.2162 44.0053 38.3151 43.9885 38.4054C43.9718 38.4957 43.9453 38.5939 43.9091 38.7C44.5015 38.7 44.9985 38.9064 45.3999 39.3192C45.8014 39.732 46.0014 40.2422 46 40.85C45.9986 41.4577 45.7979 41.9687 45.3978 42.3829C44.9978 42.7972 44.5015 43.0028 43.9091 43H2.09092Z" fill="black"/>
</svg>
