<svg width="33" height="43" viewBox="0 0 33 43" fill="none" xmlns="http://www.w3.org/2000/svg">
<path d="M27.2321 0C28.5345 0 29.7836 0.517377 30.7045 1.43832C31.6255 2.35925 32.1429 3.60831 32.1429 4.91071V37.9464C32.1429 39.2488 31.6255 40.4979 30.7045 41.4188C29.7836 42.3398 28.5345 42.8571 27.2321 42.8571H4.91071C3.60831 42.8571 2.35925 42.3398 1.43831 41.4188C0.517377 40.4979 0 39.2488 0 37.9464V4.91071C0 3.60831 0.517377 2.35925 1.43831 1.43832C2.35925 0.517377 3.60831 0 4.91071 0H27.2321ZM12.5 6.69643C12.5 7.43571 13.1 8.03571 13.8393 8.03571H18.3036C18.6588 8.03571 18.9994 7.89461 19.2506 7.64345C19.5018 7.39228 19.6429 7.05163 19.6429 6.69643C19.6429 6.34123 19.5018 6.00058 19.2506 5.74941C18.9994 5.49825 18.6588 5.35714 18.3036 5.35714H13.8393C13.4841 5.35714 13.1434 5.49825 12.8923 5.74941C12.6411 6.00058 12.5 6.34123 12.5 6.69643ZM10.2679 17.4107C10.2679 18.9499 10.8793 20.4261 11.9677 21.5145C13.0561 22.6028 14.5322 23.2143 16.0714 23.2143C17.6106 23.2143 19.0868 22.6028 20.1752 21.5145C21.2636 20.4261 21.875 18.9499 21.875 17.4107C21.875 15.8715 21.2636 14.3954 20.1752 13.307C19.0868 12.2186 17.6106 11.6071 16.0714 11.6071C14.5322 11.6071 13.0561 12.2186 11.9677 13.307C10.8793 14.3954 10.2679 15.8715 10.2679 17.4107ZM10.4286 25C9.32035 25 8.25751 25.4402 7.47388 26.2239C6.69024 27.0075 6.25 28.0703 6.25 29.1786C6.25 31.6786 7.4 33.6071 9.26786 34.8571C11.0768 36.0714 13.4875 36.6071 16.0714 36.6071C18.6554 36.6071 21.0661 36.0714 22.875 34.8571C24.7429 33.6071 25.8929 31.6786 25.8929 29.1786C25.8929 28.0703 25.4526 27.0075 24.669 26.2239C23.8853 25.4402 22.8225 25 21.7143 25H10.4286Z" fill="black"/>
</svg>
