<svg width="46" height="32" viewBox="0 0 46 32" fill="none" xmlns="http://www.w3.org/2000/svg">
<path d="M0 31.25V0H4.16667V20.8333H20.8333V4.16667H37.5C39.7917 4.16667 41.7535 4.98264 43.3854 6.61458C45.0174 8.24653 45.8333 10.2083 45.8333 12.5V31.25H41.6667V25H4.16667V31.25H0ZM12.5 18.75C10.7639 18.75 9.28819 18.1424 8.07292 16.9271C6.85764 15.7118 6.25 14.2361 6.25 12.5C6.25 10.7639 6.85764 9.28819 8.07292 8.07292C9.28819 6.85764 10.7639 6.25 12.5 6.25C14.2361 6.25 15.7118 6.85764 16.9271 8.07292C18.1424 9.28819 18.75 10.7639 18.75 12.5C18.75 14.2361 18.1424 15.7118 16.9271 16.9271C15.7118 18.1424 14.2361 18.75 12.5 18.75Z" fill="black"/>
</svg>
