<svg width="44" height="43" viewBox="0 0 44 43" fill="none" xmlns="http://www.w3.org/2000/svg">
<path d="M34.3294 11.4167C35.7108 11.4167 37.0355 10.8679 38.0123 9.89118C38.989 8.91443 39.5378 7.58967 39.5378 6.20833C39.5378 4.827 38.989 3.50224 38.0123 2.52549C37.0355 1.54873 35.7108 1 34.3294 1C32.9481 1 31.6233 1.54873 30.6466 2.52549C29.6698 3.50224 29.1211 4.827 29.1211 6.20833C29.1211 7.58967 29.6698 8.91443 30.6466 9.89118C31.6233 10.8679 32.9481 11.4167 34.3294 11.4167Z" fill="black" stroke="black" stroke-width="2"/>
<path d="M9.32917 13.2625L17.6656 10.375L29.1208 15.8427L17.6656 24.3812L29.1208 31.9229L21.8375 41.625M33.6208 18.3385L36.4146 19.8583L42.6625 13.9875M14.3802 28.6531L11.2865 32.7281L1 38.499" stroke="black" stroke-width="2" stroke-linecap="round" stroke-linejoin="round"/>
</svg>
